# xmcd
#
# Track frame offsets:
#	225
#	12483
#	23507
#	36253
#	47661
#	60654
#	74334
#	88848
#	102081
#	114673
#
# Disc length: 1736 seconds
#
# Revision: 0
# Processed by: cddbd v1.5.1PL0 Copyright (c) Steve Scherf et al.
# Submitted via: dBpowerAMP V4.0
#
DISCID=8006c50a
DTITLE=CARDENALES DE NUEVO LEON - 30 ALBUMS DE COLECCIÓN
DYEAR=2004
DGENRE=NORTEÑAS
TTITLE0=COMPRE UNA CANTINA
TTITLE1=LA PERA MADURA
TTITLE2=SI YO FUERA EL
TTITLE3=AMOR CHIQUITO
TTITLE4=EL PRIMER TONTO
TTITLE5=VESTIDO BLANCO
TTITLE6=MI COMPLICE
TTITLE7=SI ELLA SUPIERA
TTITLE8=Y QUE MAS DA
TTITLE9=ASESINO A SUELDO
EXTD=CARDENALES DE NUEVO LEON - 30 DE COLECCIÓN\nXCRASH
EXTT0=
EXTT1=
EXTT2=
EXTT3=
EXTT4=
EXTT5=
EXTT6=
EXTT7=
EXTT8=
EXTT9=
PLAYORDER=
